<svg id="SvgjsSvg1006" width="288" height="288" xmlns="http://www.w3.org/2000/svg" version="1.1" xmlns:xlink="http://www.w3.org/1999/xlink" xmlns:svgjs="http://svgjs.com/svgjs"><defs id="SvgjsDefs1007"></defs><g id="SvgjsG1008"><svg xmlns="http://www.w3.org/2000/svg" shape-rendering="crispEdges" viewBox="0 0 256 256" width="288" height="288"><rect width="16" height="16" x="64" fill="#ffffff" class="colorrgba000255 svgShape"></rect><rect width="16" height="16" x="80" fill="#ffffff" class="colorrgba000255 svgShape"></rect><rect width="16" height="16" x="96" fill="#ffffff" class="colorrgba000255 svgShape"></rect><rect width="16" height="16" x="112" fill="#ffffff" class="colorrgba000255 svgShape"></rect><rect width="16" height="16" x="128" fill="#ffffff" class="colorrgba000255 svgShape"></rect><rect width="16" height="16" x="144" fill="#ffffff" class="colorrgba000255 svgShape"></rect><rect width="16" height="16" x="160" fill="#ffffff" class="colorrgba000255 svgShape"></rect><rect width="16" height="16" x="176" fill="#ffffff" class="colorrgba000255 svgShape"></rect><rect width="16" height="16" x="48" y="16" fill="#ffffff" class="colorrgba000255 svgShape"></rect><rect width="16" height="16" x="64" y="16" fill="#ffffff" class="colorrgba000255 svgShape"></rect><rect width="16" height="16" x="80" y="16" fill="#ffffff" class="colorrgba000255 svgShape"></rect><rect width="16" height="16" x="96" y="16" fill="#ffffff" class="colorrgba000255 svgShape"></rect><rect width="16" height="16" x="112" y="16" fill="#ffffff" class="colorrgba000255 svgShape"></rect><rect width="16" height="16" x="128" y="16" fill="#ffffff" class="colorrgba000255 svgShape"></rect><rect width="16" height="16" x="144" y="16" fill="#ffffff" class="colorrgba000255 svgShape"></rect><rect width="16" height="16" x="160" y="16" fill="#ffffff" class="colorrgba000255 svgShape"></rect><rect width="16" height="16" x="176" y="16" fill="#ffffff" class="colorrgba000255 svgShape"></rect><rect width="16" height="16" x="192" y="16" fill="#ffffff" class="colorrgba000255 svgShape"></rect><rect width="16" height="16" x="32" y="32" fill="#ffffff" class="colorrgba000255 svgShape"></rect><rect width="16" height="16" x="48" y="32" fill="#ffffff" class="colorrgba000255 svgShape"></rect><rect width="16" height="16" x="64" y="32" fill="#ffffff" class="colorrgba000255 svgShape"></rect><rect width="16" height="16" x="80" y="32" fill="#ffffff" class="colorrgba000255 svgShape"></rect><rect width="16" height="16" x="96" y="32" fill="#ffffff" class="colorrgba000255 svgShape"></rect><rect width="16" height="16" x="112" y="32" fill="#ffffff" class="colorrgba000255 svgShape"></rect><rect width="16" height="16" x="128" y="32" fill="#ffffff" class="colorrgba000255 svgShape"></rect><rect width="16" height="16" x="144" y="32" fill="#ffffff" class="colorrgba000255 svgShape"></rect><rect width="16" height="16" x="160" y="32" fill="#ffffff" class="colorrgba000255 svgShape"></rect><rect width="16" height="16" x="176" y="32" fill="#ffffff" class="colorrgba000255 svgShape"></rect><rect width="16" height="16" x="192" y="32" fill="#ffffff" class="colorrgba000255 svgShape"></rect><rect width="16" height="16" x="208" y="32" fill="#ffffff" class="colorrgba000255 svgShape"></rect><rect width="16" height="16" x="16" y="48" fill="#ffffff" class="colorrgba000255 svgShape"></rect><rect width="16" height="16" x="32" y="48" fill="#ffffff" class="colorrgba000255 svgShape"></rect><rect width="16" height="16" x="48" y="48" fill="#ffffff" class="colorrgba000255 svgShape"></rect><rect width="16" height="16" x="80" y="48" fill="#ffffff" class="colorrgba000255 svgShape"></rect><rect width="16" height="16" x="96" y="48" fill="#ffffff" class="colorrgba000255 svgShape"></rect><rect width="16" height="16" x="112" y="48" fill="#ffffff" class="colorrgba000255 svgShape"></rect><rect width="16" height="16" x="128" y="48" fill="#ffffff" class="colorrgba000255 svgShape"></rect><rect width="16" height="16" x="144" y="48" fill="#ffffff" class="colorrgba000255 svgShape"></rect><rect width="16" height="16" x="160" y="48" fill="#ffffff" class="colorrgba000255 svgShape"></rect><rect width="16" height="16" x="192" y="48" fill="#ffffff" class="colorrgba000255 svgShape"></rect><rect width="16" height="16" x="208" y="48" fill="#ffffff" class="colorrgba000255 svgShape"></rect><rect width="16" height="16" x="224" y="48" fill="#ffffff" class="colorrgba000255 svgShape"></rect><rect width="16" height="16" x="16" y="64" fill="#ffffff" class="colorrgba000255 svgShape"></rect><rect width="16" height="16" x="32" y="64" fill="#ffffff" class="colorrgba000255 svgShape"></rect><rect width="16" height="16" x="48" y="64" fill="#ffffff" class="colorrgba000255 svgShape"></rect><rect width="16" height="16" x="192" y="64" fill="#ffffff" class="colorrgba000255 svgShape"></rect><rect width="16" height="16" x="208" y="64" fill="#ffffff" class="colorrgba000255 svgShape"></rect><rect width="16" height="16" x="224" y="64" fill="#ffffff" class="colorrgba000255 svgShape"></rect><rect width="16" height="16" x="16" y="80" fill="#ffffff" class="colorrgba000255 svgShape"></rect><rect width="16" height="16" x="32" y="80" fill="#ffffff" class="colorrgba000255 svgShape"></rect><rect width="16" height="16" x="48" y="80" fill="#ffffff" class="colorrgba000255 svgShape"></rect><rect width="16" height="16" x="192" y="80" fill="#ffffff" class="colorrgba000255 svgShape"></rect><rect width="16" height="16" x="208" y="80" fill="#ffffff" class="colorrgba000255 svgShape"></rect><rect width="16" height="16" x="224" y="80" fill="#ffffff" class="colorrgba000255 svgShape"></rect><rect width="16" height="16" y="96" fill="#ffffff" class="colorrgba000255 svgShape"></rect><rect width="16" height="16" x="16" y="96" fill="#ffffff" class="colorrgba000255 svgShape"></rect><rect width="16" height="16" x="32" y="96" fill="#ffffff" class="colorrgba000255 svgShape"></rect><rect width="16" height="16" x="208" y="96" fill="#ffffff" class="colorrgba000255 svgShape"></rect><rect width="16" height="16" x="224" y="96" fill="#ffffff" class="colorrgba000255 svgShape"></rect><rect width="16" height="16" x="240" y="96" fill="#ffffff" class="colorrgba000255 svgShape"></rect><rect width="16" height="16" y="112" fill="#ffffff" class="colorrgba000255 svgShape"></rect><rect width="16" height="16" x="16" y="112" fill="#ffffff" class="colorrgba000255 svgShape"></rect><rect width="16" height="16" x="32" y="112" fill="#ffffff" class="colorrgba000255 svgShape"></rect><rect width="16" height="16" x="208" y="112" fill="#ffffff" class="colorrgba000255 svgShape"></rect><rect width="16" height="16" x="224" y="112" fill="#ffffff" class="colorrgba000255 svgShape"></rect><rect width="16" height="16" x="240" y="112" fill="#ffffff" class="colorrgba000255 svgShape"></rect><rect width="16" height="16" y="128" fill="#ffffff" class="colorrgba000255 svgShape"></rect><rect width="16" height="16" x="16" y="128" fill="#ffffff" class="colorrgba000255 svgShape"></rect><rect width="16" height="16" x="32" y="128" fill="#ffffff" class="colorrgba000255 svgShape"></rect><rect width="16" height="16" x="208" y="128" fill="#ffffff" class="colorrgba000255 svgShape"></rect><rect width="16" height="16" x="224" y="128" fill="#ffffff" class="colorrgba000255 svgShape"></rect><rect width="16" height="16" x="240" y="128" fill="#ffffff" class="colorrgba000255 svgShape"></rect><rect width="16" height="16" y="144" fill="#ffffff" class="colorrgba000255 svgShape"></rect><rect width="16" height="16" x="16" y="144" fill="#ffffff" class="colorrgba000255 svgShape"></rect><rect width="16" height="16" x="32" y="144" fill="#ffffff" class="colorrgba000255 svgShape"></rect><rect width="16" height="16" x="208" y="144" fill="#ffffff" class="colorrgba000255 svgShape"></rect><rect width="16" height="16" x="224" y="144" fill="#ffffff" class="colorrgba000255 svgShape"></rect><rect width="16" height="16" x="240" y="144" fill="#ffffff" class="colorrgba000255 svgShape"></rect><rect width="16" height="16" y="160" fill="#ffffff" class="colorrgba000255 svgShape"></rect><rect width="16" height="16" x="16" y="160" fill="#ffffff" class="colorrgba000255 svgShape"></rect><rect width="16" height="16" x="32" y="160" fill="#ffffff" class="colorrgba000255 svgShape"></rect><rect width="16" height="16" x="48" y="160" fill="#ffffff" class="colorrgba000255 svgShape"></rect><rect width="16" height="16" x="192" y="160" fill="#ffffff" class="colorrgba000255 svgShape"></rect><rect width="16" height="16" x="208" y="160" fill="#ffffff" class="colorrgba000255 svgShape"></rect><rect width="16" height="16" x="224" y="160" fill="#ffffff" class="colorrgba000255 svgShape"></rect><rect width="16" height="16" x="240" y="160" fill="#ffffff" class="colorrgba000255 svgShape"></rect><rect width="16" height="16" x="16" y="176" fill="#ffffff" class="colorrgba000255 svgShape"></rect><rect width="16" height="16" x="32" y="176" fill="#ffffff" class="colorrgba000255 svgShape"></rect><rect width="16" height="16" x="48" y="176" fill="#ffffff" class="colorrgba000255 svgShape"></rect><rect width="16" height="16" x="64" y="176" fill="#ffffff" class="colorrgba000255 svgShape"></rect><rect width="16" height="16" x="176" y="176" fill="#ffffff" class="colorrgba000255 svgShape"></rect><rect width="16" height="16" x="192" y="176" fill="#ffffff" class="colorrgba000255 svgShape"></rect><rect width="16" height="16" x="208" y="176" fill="#ffffff" class="colorrgba000255 svgShape"></rect><rect width="16" height="16" x="224" y="176" fill="#ffffff" class="colorrgba000255 svgShape"></rect><rect width="16" height="16" x="16" y="192" fill="#ffffff" class="colorrgba000255 svgShape"></rect><rect width="16" height="16" x="32" y="192" fill="#ffffff" class="colorrgba000255 svgShape"></rect><rect width="16" height="16" x="64" y="192" fill="#ffffff" class="colorrgba000255 svgShape"></rect><rect width="16" height="16" x="80" y="192" fill="#ffffff" class="colorrgba000255 svgShape"></rect><rect width="16" height="16" x="96" y="192" fill="#ffffff" class="colorrgba000255 svgShape"></rect><rect width="16" height="16" x="144" y="192" fill="#ffffff" class="colorrgba000255 svgShape"></rect><rect width="16" height="16" x="160" y="192" fill="#ffffff" class="colorrgba000255 svgShape"></rect><rect width="16" height="16" x="176" y="192" fill="#ffffff" class="colorrgba000255 svgShape"></rect><rect width="16" height="16" x="192" y="192" fill="#ffffff" class="colorrgba000255 svgShape"></rect><rect width="16" height="16" x="208" y="192" fill="#ffffff" class="colorrgba000255 svgShape"></rect><rect width="16" height="16" x="224" y="192" fill="#ffffff" class="colorrgba000255 svgShape"></rect><rect width="16" height="16" x="32" y="208" fill="#ffffff" class="colorrgba000255 svgShape"></rect><rect width="16" height="16" x="48" y="208" fill="#ffffff" class="colorrgba000255 svgShape"></rect><rect width="16" height="16" x="160" y="208" fill="#ffffff" class="colorrgba000255 svgShape"></rect><rect width="16" height="16" x="176" y="208" fill="#ffffff" class="colorrgba000255 svgShape"></rect><rect width="16" height="16" x="192" y="208" fill="#ffffff" class="colorrgba000255 svgShape"></rect><rect width="16" height="16" x="208" y="208" fill="#ffffff" class="colorrgba000255 svgShape"></rect><rect width="16" height="16" x="48" y="224" fill="#ffffff" class="colorrgba000255 svgShape"></rect><rect width="16" height="16" x="64" y="224" fill="#ffffff" class="colorrgba000255 svgShape"></rect><rect width="16" height="16" x="80" y="224" fill="#ffffff" class="colorrgba000255 svgShape"></rect><rect width="16" height="16" x="96" y="224" fill="#ffffff" class="colorrgba000255 svgShape"></rect><rect width="16" height="16" x="160" y="224" fill="#ffffff" class="colorrgba000255 svgShape"></rect><rect width="16" height="16" x="176" y="224" fill="#ffffff" class="colorrgba000255 svgShape"></rect><rect width="16" height="16" x="192" y="224" fill="#ffffff" class="colorrgba000255 svgShape"></rect><rect width="16" height="16" x="64" y="240" fill="#ffffff" class="colorrgba000255 svgShape"></rect><rect width="16" height="16" x="80" y="240" fill="#ffffff" class="colorrgba000255 svgShape"></rect><rect width="16" height="16" x="96" y="240" fill="#ffffff" class="colorrgba000255 svgShape"></rect><rect width="16" height="16" x="160" y="240" fill="#ffffff" class="colorrgba000255 svgShape"></rect><rect width="16" height="16" x="176" y="240" fill="#ffffff" class="colorrgba000255 svgShape"></rect></svg></g></svg>