<svg id="SvgjsSvg1006" width="288" height="288" xmlns="http://www.w3.org/2000/svg" version="1.1" xmlns:xlink="http://www.w3.org/1999/xlink" xmlns:svgjs="http://svgjs.com/svgjs"><defs id="SvgjsDefs1007"></defs><g id="SvgjsG1008"><svg xmlns="http://www.w3.org/2000/svg" shape-rendering="crispEdges" viewBox="0 0 16 16" width="288" height="288"><rect width="1" height="1" x="2" fill="#ffffff" class="color278CC0 svgShape"></rect><rect width="1" height="1" x="3" fill="#ffffff" class="color278CC0 svgShape"></rect><rect width="1" height="1" x="4" fill="#ffffff" class="color278CC0 svgShape"></rect><rect width="1" height="1" x="5" fill="#ffffff" class="color278CC0 svgShape"></rect><rect width="1" height="1" x="6" fill="#ffffff" class="color278CC0 svgShape"></rect><rect width="1" height="1" x="7" fill="#ffffff" class="color278CC0 svgShape"></rect><rect width="1" height="1" x="8" fill="#ffffff" class="color278CC0 svgShape"></rect><rect width="1" height="1" x="9" fill="#ffffff" class="color278CC0 svgShape"></rect><rect width="1" height="1" x="10" fill="#ffffff" class="color278CC0 svgShape"></rect><rect width="1" height="1" x="11" fill="#ffffff" class="color278CC0 svgShape"></rect><rect width="1" height="1" x="12" fill="#ffffff" class="color278CC0 svgShape"></rect><rect width="1" height="1" x="13" fill="#ffffff" class="color278CC0 svgShape"></rect><rect width="1" height="1" x="1" y="1" fill="#ffffff" class="color278CC0 svgShape"></rect><rect width="1" height="1" x="2" y="1" fill="#ffffff" class="color0078B5 svgShape"></rect><rect width="1" height="1" x="3" y="1" fill="#ffffff" class="color0078B5 svgShape"></rect><rect width="1" height="1" x="4" y="1" fill="#ffffff" class="color0078B5 svgShape"></rect><rect width="1" height="1" x="5" y="1" fill="#ffffff" class="color0078B5 svgShape"></rect><rect width="1" height="1" x="6" y="1" fill="#ffffff" class="color0078B5 svgShape"></rect><rect width="1" height="1" x="7" y="1" fill="#ffffff" class="color0078B5 svgShape"></rect><rect width="1" height="1" x="8" y="1" fill="#ffffff" class="color0078B5 svgShape"></rect><rect width="1" height="1" x="9" y="1" fill="#ffffff" class="color0078B5 svgShape"></rect><rect width="1" height="1" x="10" y="1" fill="#ffffff" class="color0078B5 svgShape"></rect><rect width="1" height="1" x="11" y="1" fill="#ffffff" class="color0078B5 svgShape"></rect><rect width="1" height="1" x="12" y="1" fill="#ffffff" class="color0078B5 svgShape"></rect><rect width="1" height="1" x="13" y="1" fill="#ffffff" class="color0078B5 svgShape"></rect><rect width="1" height="1" x="14" y="1" fill="#ffffff" class="color0078B5 svgShape"></rect><rect width="1" height="1" y="2" fill="#ffffff" class="color278CC0 svgShape"></rect><rect width="1" height="1" x="1" y="2" fill="#ffffff" class="color0078B5 svgShape"></rect><rect width="1" height="1" x="2" y="2" fill="#ffffff" class="color0078B5 svgShape"></rect><rect width="1" height="1" x="3" y="2" fill="#ffffff" class="color0078B5 svgShape"></rect><rect width="1" height="1" x="4" y="2" fill="#ffffff" class="color0078B5 svgShape"></rect><rect width="1" height="1" x="5" y="2" fill="#ffffff" class="color0078B5 svgShape"></rect><rect width="1" height="1" x="6" y="2" fill="#ffffff" class="color0078B5 svgShape"></rect><rect width="1" height="1" x="7" y="2" fill="#ffffff" class="color0078B5 svgShape"></rect><rect width="1" height="1" x="8" y="2" fill="#ffffff" class="color0078B5 svgShape"></rect><rect width="1" height="1" x="9" y="2" fill="#ffffff" class="color0078B5 svgShape"></rect><rect width="1" height="1" x="10" y="2" fill="#ffffff" class="color0078B5 svgShape"></rect><rect width="1" height="1" x="11" y="2" fill="#ffffff" class="color0078B5 svgShape"></rect><rect width="1" height="1" x="12" y="2" fill="#ffffff" class="color0078B5 svgShape"></rect><rect width="1" height="1" x="13" y="2" fill="#ffffff" class="color0078B5 svgShape"></rect><rect width="1" height="1" x="14" y="2" fill="#ffffff" class="color0078B5 svgShape"></rect><rect width="1" height="1" x="15" y="2" fill="#ffffff" class="color00669A svgShape"></rect><rect width="1" height="1" y="3" fill="#ffffff" class="color278CC0 svgShape"></rect><rect width="1" height="1" x="1" y="3" fill="#ffffff" class="color0078B5 svgShape"></rect><rect width="1" height="1" x="2" y="3" fill="#ffffff" class="color0078B5 svgShape"></rect><rect width="1" height="1" x="3" y="3" fill="#000000" class="colorFFF svgShape"></rect><rect width="1" height="1" x="4" y="3" fill="#000000" class="colorFFF svgShape"></rect><rect width="1" height="1" x="5" y="3" fill="#ffffff" class="color0078B5 svgShape"></rect><rect width="1" height="1" x="6" y="3" fill="#ffffff" class="color0078B5 svgShape"></rect><rect width="1" height="1" x="7" y="3" fill="#ffffff" class="color0078B5 svgShape"></rect><rect width="1" height="1" x="8" y="3" fill="#ffffff" class="color0078B5 svgShape"></rect><rect width="1" height="1" x="9" y="3" fill="#ffffff" class="color0078B5 svgShape"></rect><rect width="1" height="1" x="10" y="3" fill="#ffffff" class="color0078B5 svgShape"></rect><rect width="1" height="1" x="11" y="3" fill="#ffffff" class="color0078B5 svgShape"></rect><rect width="1" height="1" x="12" y="3" fill="#ffffff" class="color0078B5 svgShape"></rect><rect width="1" height="1" x="13" y="3" fill="#ffffff" class="color0078B5 svgShape"></rect><rect width="1" height="1" x="14" y="3" fill="#ffffff" class="color0078B5 svgShape"></rect><rect width="1" height="1" x="15" y="3" fill="#ffffff" class="color00669A svgShape"></rect><rect width="1" height="1" y="4" fill="#ffffff" class="color278CC0 svgShape"></rect><rect width="1" height="1" x="1" y="4" fill="#ffffff" class="color0078B5 svgShape"></rect><rect width="1" height="1" x="2" y="4" fill="#ffffff" class="color0078B5 svgShape"></rect><rect width="1" height="1" x="3" y="4" fill="#000000" class="colorFFF svgShape"></rect><rect width="1" height="1" x="4" y="4" fill="#000000" class="colorFFF svgShape"></rect><rect width="1" height="1" x="5" y="4" fill="#ffffff" class="color0078B5 svgShape"></rect><rect width="1" height="1" x="6" y="4" fill="#ffffff" class="color0078B5 svgShape"></rect><rect width="1" height="1" x="7" y="4" fill="#ffffff" class="color0078B5 svgShape"></rect><rect width="1" height="1" x="8" y="4" fill="#ffffff" class="color0078B5 svgShape"></rect><rect width="1" height="1" x="9" y="4" fill="#ffffff" class="color0078B5 svgShape"></rect><rect width="1" height="1" x="10" y="4" fill="#ffffff" class="color0078B5 svgShape"></rect><rect width="1" height="1" x="11" y="4" fill="#ffffff" class="color0078B5 svgShape"></rect><rect width="1" height="1" x="12" y="4" fill="#ffffff" class="color0078B5 svgShape"></rect><rect width="1" height="1" x="13" y="4" fill="#ffffff" class="color0078B5 svgShape"></rect><rect width="1" height="1" x="14" y="4" fill="#ffffff" class="color0078B5 svgShape"></rect><rect width="1" height="1" x="15" y="4" fill="#ffffff" class="color00669A svgShape"></rect><rect width="1" height="1" y="5" fill="#ffffff" class="color278CC0 svgShape"></rect><rect width="1" height="1" x="1" y="5" fill="#ffffff" class="color0078B5 svgShape"></rect><rect width="1" height="1" x="2" y="5" fill="#ffffff" class="color0078B5 svgShape"></rect><rect width="1" height="1" x="3" y="5" fill="#ffffff" class="color0078B5 svgShape"></rect><rect width="1" height="1" x="4" y="5" fill="#ffffff" class="color0078B5 svgShape"></rect><rect width="1" height="1" x="5" y="5" fill="#ffffff" class="color0078B5 svgShape"></rect><rect width="1" height="1" x="6" y="5" fill="#ffffff" class="color0078B5 svgShape"></rect><rect width="1" height="1" x="7" y="5" fill="#ffffff" class="color0078B5 svgShape"></rect><rect width="1" height="1" x="8" y="5" fill="#ffffff" class="color0078B5 svgShape"></rect><rect width="1" height="1" x="9" y="5" fill="#ffffff" class="color0078B5 svgShape"></rect><rect width="1" height="1" x="10" y="5" fill="#ffffff" class="color0078B5 svgShape"></rect><rect width="1" height="1" x="11" y="5" fill="#ffffff" class="color0078B5 svgShape"></rect><rect width="1" height="1" x="12" y="5" fill="#ffffff" class="color0078B5 svgShape"></rect><rect width="1" height="1" x="13" y="5" fill="#ffffff" class="color0078B5 svgShape"></rect><rect width="1" height="1" x="14" y="5" fill="#ffffff" class="color0078B5 svgShape"></rect><rect width="1" height="1" x="15" y="5" fill="#ffffff" class="color00669A svgShape"></rect><rect width="1" height="1" y="6" fill="#ffffff" class="color278CC0 svgShape"></rect><rect width="1" height="1" x="1" y="6" fill="#ffffff" class="color0078B5 svgShape"></rect><rect width="1" height="1" x="2" y="6" fill="#ffffff" class="color0078B5 svgShape"></rect><rect width="1" height="1" x="3" y="6" fill="#000000" class="colorFFF svgShape"></rect><rect width="1" height="1" x="4" y="6" fill="#000000" class="colorFFF svgShape"></rect><rect width="1" height="1" x="5" y="6" fill="#ffffff" class="color0078B5 svgShape"></rect><rect width="1" height="1" x="6" y="6" fill="#ffffff" class="color0078B5 svgShape"></rect><rect width="1" height="1" x="7" y="6" fill="#000000" class="colorFFF svgShape"></rect><rect width="1" height="1" x="8" y="6" fill="#000000" class="colorFFF svgShape"></rect><rect width="1" height="1" x="9" y="6" fill="#ffffff" class="color0078B5 svgShape"></rect><rect width="1" height="1" x="10" y="6" fill="#000000" class="colorFFF svgShape"></rect><rect width="1" height="1" x="11" y="6" fill="#000000" class="colorFFF svgShape"></rect><rect width="1" height="1" x="12" y="6" fill="#ffffff" class="color0078B5 svgShape"></rect><rect width="1" height="1" x="13" y="6" fill="#ffffff" class="color0078B5 svgShape"></rect><rect width="1" height="1" x="14" y="6" fill="#ffffff" class="color0078B5 svgShape"></rect><rect width="1" height="1" x="15" y="6" fill="#ffffff" class="color00669A svgShape"></rect><rect width="1" height="1" y="7" fill="#ffffff" class="color278CC0 svgShape"></rect><rect width="1" height="1" x="1" y="7" fill="#ffffff" class="color0078B5 svgShape"></rect><rect width="1" height="1" x="2" y="7" fill="#ffffff" class="color0078B5 svgShape"></rect><rect width="1" height="1" x="3" y="7" fill="#000000" class="colorFFF svgShape"></rect><rect width="1" height="1" x="4" y="7" fill="#000000" class="colorFFF svgShape"></rect><rect width="1" height="1" x="5" y="7" fill="#ffffff" class="color0078B5 svgShape"></rect><rect width="1" height="1" x="6" y="7" fill="#ffffff" class="color0078B5 svgShape"></rect><rect width="1" height="1" x="7" y="7" fill="#000000" class="colorFFF svgShape"></rect><rect width="1" height="1" x="8" y="7" fill="#000000" class="colorFFF svgShape"></rect><rect width="1" height="1" x="9" y="7" fill="#000000" class="colorFFF svgShape"></rect><rect width="1" height="1" x="10" y="7" fill="#000000" class="colorFFF svgShape"></rect><rect width="1" height="1" x="11" y="7" fill="#000000" class="colorFFF svgShape"></rect><rect width="1" height="1" x="12" y="7" fill="#000000" class="colorFFF svgShape"></rect><rect width="1" height="1" x="13" y="7" fill="#ffffff" class="color0078B5 svgShape"></rect><rect width="1" height="1" x="14" y="7" fill="#ffffff" class="color0078B5 svgShape"></rect><rect width="1" height="1" x="15" y="7" fill="#ffffff" class="color00669A svgShape"></rect><rect width="1" height="1" y="8" fill="#ffffff" class="color278CC0 svgShape"></rect><rect width="1" height="1" x="1" y="8" fill="#ffffff" class="color0078B5 svgShape"></rect><rect width="1" height="1" x="2" y="8" fill="#ffffff" class="color0078B5 svgShape"></rect><rect width="1" height="1" x="3" y="8" fill="#000000" class="colorFFF svgShape"></rect><rect width="1" height="1" x="4" y="8" fill="#000000" class="colorFFF svgShape"></rect><rect width="1" height="1" x="5" y="8" fill="#ffffff" class="color0078B5 svgShape"></rect><rect width="1" height="1" x="6" y="8" fill="#ffffff" class="color0078B5 svgShape"></rect><rect width="1" height="1" x="7" y="8" fill="#000000" class="colorFFF svgShape"></rect><rect width="1" height="1" x="8" y="8" fill="#000000" class="colorFFF svgShape"></rect><rect width="1" height="1" x="9" y="8" fill="#ffffff" class="color0078B5 svgShape"></rect><rect width="1" height="1" x="10" y="8" fill="#ffffff" class="color0078B5 svgShape"></rect><rect width="1" height="1" x="11" y="8" fill="#000000" class="colorFFF svgShape"></rect><rect width="1" height="1" x="12" y="8" fill="#000000" class="colorFFF svgShape"></rect><rect width="1" height="1" x="13" y="8" fill="#ffffff" class="color0078B5 svgShape"></rect><rect width="1" height="1" x="14" y="8" fill="#ffffff" class="color0078B5 svgShape"></rect><rect width="1" height="1" x="15" y="8" fill="#ffffff" class="color00669A svgShape"></rect><rect width="1" height="1" y="9" fill="#ffffff" class="color278CC0 svgShape"></rect><rect width="1" height="1" x="1" y="9" fill="#ffffff" class="color0078B5 svgShape"></rect><rect width="1" height="1" x="2" y="9" fill="#ffffff" class="color0078B5 svgShape"></rect><rect width="1" height="1" x="3" y="9" fill="#000000" class="colorFFF svgShape"></rect><rect width="1" height="1" x="4" y="9" fill="#000000" class="colorFFF svgShape"></rect><rect width="1" height="1" x="5" y="9" fill="#ffffff" class="color0078B5 svgShape"></rect><rect width="1" height="1" x="6" y="9" fill="#ffffff" class="color0078B5 svgShape"></rect><rect width="1" height="1" x="7" y="9" fill="#000000" class="colorFFF svgShape"></rect><rect width="1" height="1" x="8" y="9" fill="#000000" class="colorFFF svgShape"></rect><rect width="1" height="1" x="9" y="9" fill="#ffffff" class="color0078B5 svgShape"></rect><rect width="1" height="1" x="10" y="9" fill="#ffffff" class="color0078B5 svgShape"></rect><rect width="1" height="1" x="11" y="9" fill="#000000" class="colorFFF svgShape"></rect><rect width="1" height="1" x="12" y="9" fill="#000000" class="colorFFF svgShape"></rect><rect width="1" height="1" x="13" y="9" fill="#ffffff" class="color0078B5 svgShape"></rect><rect width="1" height="1" x="14" y="9" fill="#ffffff" class="color0078B5 svgShape"></rect><rect width="1" height="1" x="15" y="9" fill="#ffffff" class="color00669A svgShape"></rect><rect width="1" height="1" y="10" fill="#ffffff" class="color278CC0 svgShape"></rect><rect width="1" height="1" x="1" y="10" fill="#ffffff" class="color0078B5 svgShape"></rect><rect width="1" height="1" x="2" y="10" fill="#ffffff" class="color0078B5 svgShape"></rect><rect width="1" height="1" x="3" y="10" fill="#000000" class="colorFFF svgShape"></rect><rect width="1" height="1" x="4" y="10" fill="#000000" class="colorFFF svgShape"></rect><rect width="1" height="1" x="5" y="10" fill="#ffffff" class="color0078B5 svgShape"></rect><rect width="1" height="1" x="6" y="10" fill="#ffffff" class="color0078B5 svgShape"></rect><rect width="1" height="1" x="7" y="10" fill="#000000" class="colorFFF svgShape"></rect><rect width="1" height="1" x="8" y="10" fill="#000000" class="colorFFF svgShape"></rect><rect width="1" height="1" x="9" y="10" fill="#ffffff" class="color0078B5 svgShape"></rect><rect width="1" height="1" x="10" y="10" fill="#ffffff" class="color0078B5 svgShape"></rect><rect width="1" height="1" x="11" y="10" fill="#000000" class="colorFFF svgShape"></rect><rect width="1" height="1" x="12" y="10" fill="#000000" class="colorFFF svgShape"></rect><rect width="1" height="1" x="13" y="10" fill="#ffffff" class="color0078B5 svgShape"></rect><rect width="1" height="1" x="14" y="10" fill="#ffffff" class="color0078B5 svgShape"></rect><rect width="1" height="1" x="15" y="10" fill="#ffffff" class="color00669A svgShape"></rect><rect width="1" height="1" y="11" fill="#ffffff" class="color278CC0 svgShape"></rect><rect width="1" height="1" x="1" y="11" fill="#ffffff" class="color0078B5 svgShape"></rect><rect width="1" height="1" x="2" y="11" fill="#ffffff" class="color0078B5 svgShape"></rect><rect width="1" height="1" x="3" y="11" fill="#000000" class="colorFFF svgShape"></rect><rect width="1" height="1" x="4" y="11" fill="#000000" class="colorFFF svgShape"></rect><rect width="1" height="1" x="5" y="11" fill="#ffffff" class="color0078B5 svgShape"></rect><rect width="1" height="1" x="6" y="11" fill="#ffffff" class="color0078B5 svgShape"></rect><rect width="1" height="1" x="7" y="11" fill="#000000" class="colorFFF svgShape"></rect><rect width="1" height="1" x="8" y="11" fill="#000000" class="colorFFF svgShape"></rect><rect width="1" height="1" x="9" y="11" fill="#ffffff" class="color0078B5 svgShape"></rect><rect width="1" height="1" x="10" y="11" fill="#ffffff" class="color0078B5 svgShape"></rect><rect width="1" height="1" x="11" y="11" fill="#000000" class="colorFFF svgShape"></rect><rect width="1" height="1" x="12" y="11" fill="#000000" class="colorFFF svgShape"></rect><rect width="1" height="1" x="13" y="11" fill="#ffffff" class="color0078B5 svgShape"></rect><rect width="1" height="1" x="14" y="11" fill="#ffffff" class="color0078B5 svgShape"></rect><rect width="1" height="1" x="15" y="11" fill="#ffffff" class="color00669A svgShape"></rect><rect width="1" height="1" y="12" fill="#ffffff" class="color278CC0 svgShape"></rect><rect width="1" height="1" x="1" y="12" fill="#ffffff" class="color0078B5 svgShape"></rect><rect width="1" height="1" x="2" y="12" fill="#ffffff" class="color0078B5 svgShape"></rect><rect width="1" height="1" x="3" y="12" fill="#000000" class="colorFFF svgShape"></rect><rect width="1" height="1" x="4" y="12" fill="#000000" class="colorFFF svgShape"></rect><rect width="1" height="1" x="5" y="12" fill="#ffffff" class="color0078B5 svgShape"></rect><rect width="1" height="1" x="6" y="12" fill="#ffffff" class="color0078B5 svgShape"></rect><rect width="1" height="1" x="7" y="12" fill="#000000" class="colorFFF svgShape"></rect><rect width="1" height="1" x="8" y="12" fill="#000000" class="colorFFF svgShape"></rect><rect width="1" height="1" x="9" y="12" fill="#ffffff" class="color0078B5 svgShape"></rect><rect width="1" height="1" x="10" y="12" fill="#ffffff" class="color0078B5 svgShape"></rect><rect width="1" height="1" x="11" y="12" fill="#000000" class="colorFFF svgShape"></rect><rect width="1" height="1" x="12" y="12" fill="#000000" class="colorFFF svgShape"></rect><rect width="1" height="1" x="13" y="12" fill="#ffffff" class="color0078B5 svgShape"></rect><rect width="1" height="1" x="14" y="12" fill="#ffffff" class="color0078B5 svgShape"></rect><rect width="1" height="1" x="15" y="12" fill="#ffffff" class="color00669A svgShape"></rect><rect width="1" height="1" y="13" fill="#ffffff" class="color278CC0 svgShape"></rect><rect width="1" height="1" x="1" y="13" fill="#ffffff" class="color0078B5 svgShape"></rect><rect width="1" height="1" x="2" y="13" fill="#ffffff" class="color0078B5 svgShape"></rect><rect width="1" height="1" x="3" y="13" fill="#ffffff" class="color0078B5 svgShape"></rect><rect width="1" height="1" x="4" y="13" fill="#ffffff" class="color0078B5 svgShape"></rect><rect width="1" height="1" x="5" y="13" fill="#ffffff" class="color0078B5 svgShape"></rect><rect width="1" height="1" x="6" y="13" fill="#ffffff" class="color0078B5 svgShape"></rect><rect width="1" height="1" x="7" y="13" fill="#ffffff" class="color0078B5 svgShape"></rect><rect width="1" height="1" x="8" y="13" fill="#ffffff" class="color0078B5 svgShape"></rect><rect width="1" height="1" x="9" y="13" fill="#ffffff" class="color0078B5 svgShape"></rect><rect width="1" height="1" x="10" y="13" fill="#ffffff" class="color0078B5 svgShape"></rect><rect width="1" height="1" x="11" y="13" fill="#ffffff" class="color0078B5 svgShape"></rect><rect width="1" height="1" x="12" y="13" fill="#ffffff" class="color0078B5 svgShape"></rect><rect width="1" height="1" x="13" y="13" fill="#ffffff" class="color0078B5 svgShape"></rect><rect width="1" height="1" x="14" y="13" fill="#ffffff" class="color0078B5 svgShape"></rect><rect width="1" height="1" x="15" y="13" fill="#ffffff" class="color00669A svgShape"></rect><rect width="1" height="1" x="1" y="14" fill="#ffffff" class="color0078B5 svgShape"></rect><rect width="1" height="1" x="2" y="14" fill="#ffffff" class="color0078B5 svgShape"></rect><rect width="1" height="1" x="3" y="14" fill="#ffffff" class="color0078B5 svgShape"></rect><rect width="1" height="1" x="4" y="14" fill="#ffffff" class="color0078B5 svgShape"></rect><rect width="1" height="1" x="5" y="14" fill="#ffffff" class="color0078B5 svgShape"></rect><rect width="1" height="1" x="6" y="14" fill="#ffffff" class="color0078B5 svgShape"></rect><rect width="1" height="1" x="7" y="14" fill="#ffffff" class="color0078B5 svgShape"></rect><rect width="1" height="1" x="8" y="14" fill="#ffffff" class="color0078B5 svgShape"></rect><rect width="1" height="1" x="9" y="14" fill="#ffffff" class="color0078B5 svgShape"></rect><rect width="1" height="1" x="10" y="14" fill="#ffffff" class="color0078B5 svgShape"></rect><rect width="1" height="1" x="11" y="14" fill="#ffffff" class="color0078B5 svgShape"></rect><rect width="1" height="1" x="12" y="14" fill="#ffffff" class="color0078B5 svgShape"></rect><rect width="1" height="1" x="13" y="14" fill="#ffffff" class="color0078B5 svgShape"></rect><rect width="1" height="1" x="14" y="14" fill="#ffffff" class="color00669A svgShape"></rect><rect width="1" height="1" x="2" y="15" fill="#ffffff" class="color00669A svgShape"></rect><rect width="1" height="1" x="3" y="15" fill="#ffffff" class="color00669A svgShape"></rect><rect width="1" height="1" x="4" y="15" fill="#ffffff" class="color00669A svgShape"></rect><rect width="1" height="1" x="5" y="15" fill="#ffffff" class="color00669A svgShape"></rect><rect width="1" height="1" x="6" y="15" fill="#ffffff" class="color00669A svgShape"></rect><rect width="1" height="1" x="7" y="15" fill="#ffffff" class="color00669A svgShape"></rect><rect width="1" height="1" x="8" y="15" fill="#ffffff" class="color00669A svgShape"></rect><rect width="1" height="1" x="9" y="15" fill="#ffffff" class="color00669A svgShape"></rect><rect width="1" height="1" x="10" y="15" fill="#ffffff" class="color00669A svgShape"></rect><rect width="1" height="1" x="11" y="15" fill="#ffffff" class="color00669A svgShape"></rect><rect width="1" height="1" x="12" y="15" fill="#ffffff" class="color00669A svgShape"></rect><rect width="1" height="1" x="13" y="15" fill="#ffffff" class="color00669A svgShape"></rect></svg></g></svg>